Coordinates
version=1
nRows=14
nColumns=42
inDegrees=yes

Units are S.I. units (second, meters, Newtons, ...)
If the header above contains a line with 'inDegrees', this indicates whether rotational values are in degrees (yes) or radians (no).

endheader
time	pelvis_tilt	pelvis_list	pelvis_rotation	pelvis_tx	pelvis_ty	pelvis_tz	hip_flexion_r	hip_adduction_r	hip_rotation_r	knee_angle_r	knee_adduction_r	knee_angle_r_beta	ankle_angle_r	subtalar_angle_r	mtp_angle_r	hip_flexion_l	hip_adduction_l	hip_rotation_l	knee_angle_l	knee_adduction_l	knee_angle_l_beta	ankle_angle_l	subtalar_angle_l	mtp_angle_l	lumbar_extension	lumbar_bending	lumbar_rotation	arm_flex_r	arm_add_r	arm_rot_r	elbow_flex_r	pro_sup_r	wrist_flex_r	wrist_dev_r	arm_flex_l	arm_add_l	arm_rot_l	elbow_flex_l	pro_sup_l	wrist_flex_l	wrist_dev_l
      3.46000000	      3.89454791	     -2.35450947	     -0.73092584	     -0.08554935	      0.91931669	     -0.07301076	      7.23089081	     -3.95847515	    -21.39014023	     37.20972956	      0.73333447	      0.64943229	     22.87230691	      8.50153913	     -7.52207154	     26.21451362	     -7.98380852	    -18.39374091	     39.70892222	     -4.32639914	      0.69305144	      5.99156574	     -4.88566625	     -7.52207154	    -21.90370619	      6.30688375	     -3.20901585	     10.68609828	    -15.51173648	      7.16822676	     44.41369208	     90.00000001	      0.00000000	      0.00000000	    -13.90466836	    -11.41344674	     -0.75954498	     62.07794861	     90.00000001	      0.00000000	      0.00000000
      3.47000000	      3.96798205	     -2.48751198	     -0.97476788	     -0.08207299	      0.91949882	     -0.07351873	      6.85383826	     -3.76337568	    -21.10587105	     36.98140209	      0.67167464	      0.64544723	     22.92640147	      8.52738285	     -7.52195051	     25.94200826	     -7.76952322	    -18.16478488	     39.48329262	     -4.63638657	      0.68911346	      5.98561419	     -4.89171197	     -7.52195051	    -21.86053872	      6.15146419	     -3.07595818	     10.55235733	    -15.42063375	      7.17343076	     44.36993262	     90.00000001	      0.00000000	      0.00000000	    -13.99013722	    -11.41773714	     -0.76368535	     62.03920394	     90.00000001	      0.00000000	      0.00000000
      3.48000000	      4.05315208	     -2.57990757	     -1.22494918	     -0.07851384	      0.91971274	     -0.07408990	      6.48022165	     -3.63547280	    -20.83167481	     36.81486359	      0.62895498	      0.64254058	     22.95722599	      8.53544557	     -7.52187697	     25.65645747	     -7.57328390	    -17.93413402	     39.47253364	     -4.88960648	      0.68892568	      5.98719551	     -4.92677700	     -7.52187697	    -21.80713155	      5.95176888	     -2.95151328	     10.43184700	    -15.32032225	      7.18399473	     44.33150595	     90.00000001	      0.00000000	      0.00000000	    -14.08646172	    -11.41379337	     -0.76159243	     61.98552551	     90.00000001	      0.00000000	      0.00000000
      3.49000000	      4.09011217	     -2.66249588	     -1.52294412	     -0.07498299	      0.91993798	     -0.07469981	      6.17345807	     -3.56412958	    -20.63980716	     36.67809737	      0.58630781	      0.64015356	     22.97485825	      8.53727825	     -7.52183857	     25.41878329	     -7.40620546	    -17.71592123	     39.54560884	     -5.11623683	      0.69020108	      6.00002353	     -4.96733458	     -7.52183857	    -21.71217070	      5.74529745	     -2.78267663	     10.35699168	    -15.19879902	      7.20672920	     44.31747910	     90.00000001	      0.00000000	      0.00000000	    -14.20745428	    -11.41063913	     -0.76175579	     61.92703330	     90.00000001	      0.00000000	      0.00000000
      3.50000000	      4.45897845	     -2.72474125	     -1.79595372	     -0.07128875	      0.92089114	     -0.07541248	      5.25483631	     -3.43803688	    -19.76474873	     36.05725998	      0.91732186	      0.62931791	     23.06697943	      8.35557200	     -7.52152181	     24.64793871	     -7.22544725	    -17.32725387	     39.47469762	     -5.11388530	      0.68896344	      6.15100780	     -5.66313913	     -7.52152181	    -21.98335689	      5.50664897	     -2.65337366	     10.27382346	    -15.09932155	      7.09198934	     44.31009787	     90.00000001	      0.00000000	      0.00000000	    -14.17070575	    -11.40468013	     -0.76228119	     61.81237183	     90.00000001	      0.00000000	      0.00000000
      3.51000000	      4.43740376	     -2.74981884	     -2.07714627	     -0.06785374	      0.92128739	     -0.07618350	      4.95461218	     -3.36010968	    -19.05993345	     35.76350613	      1.07565402	      0.62419093	     22.82781104	      7.35278136	     -7.52029975	     24.37946001	     -6.99000481	    -16.41201173	     39.58844188	     -4.82422195	      0.69094866	      5.74105978	     -7.61404488	     -7.52029975	    -21.81950383	      5.25333030	     -2.49534935	     10.09727784	    -14.89341741	      6.70706678	     44.41864718	     90.00000001	      0.00000000	      0.00000000	    -14.16682844	    -11.37234815	     -0.80544814	     61.59928906	     90.00000001	      0.00000000	      0.00000000
      3.52000000	      4.48854346	     -2.72790725	     -2.37341204	     -0.06423140	      0.92175538	     -0.07704159	      4.57950628	     -3.40076081	    -18.81969676	     35.49286747	      1.00556827	      0.61946740	     22.80793382	      7.42916640	     -7.52018289	     24.03490060	     -6.84300572	    -16.37683623	     39.73095468	     -4.89215490	      0.69343597	      5.87190036	     -7.79330698	     -7.52018289	    -21.70535689	      4.96039058	     -2.39376548	      9.99234477	    -14.75561905	      6.72945396	     44.40824503	     90.00000001	      0.00000000	      0.00000000	    -14.26021958	    -11.37716765	     -0.82205540	     61.53249809	     90.00000001	      0.00000000	      0.00000000
      3.53000000	      4.62278128	     -2.74056543	     -2.68021750	     -0.06063438	      0.92244506	     -0.07793342	      4.04046849	     -3.43383214	    -18.49248520	     35.10707923	      1.06145391	      0.61273412	     22.77885975	      7.57037832	     -7.51994940	     23.54485584	     -6.75860831	    -16.34611094	     39.78200864	     -4.91805848	      0.69432703	      6.07637335	     -8.20421100	     -7.51994940	    -21.70086949	      4.69134385	     -2.25982643	      9.91606108	    -14.63420484	      6.71479167	     44.47610961	     90.00000001	      0.00000000	      0.00000000	    -14.33089337	    -11.32700766	     -0.86878100	     61.41406865	     90.00000001	      0.00000000	      0.00000000
      3.54000000	      4.60403948	     -2.69626655	     -2.97247938	     -0.05709817	      0.92295289	     -0.07889224	      3.73216946	     -3.52712829	    -18.35083552	     34.80976123	      0.98397810	      0.60754495	     22.74366737	      7.64353584	     -7.51984735	     23.22478733	     -6.67775565	    -16.41560623	     39.84852340	     -4.86735036	      0.69548794	      6.18466710	     -8.39730023	     -7.51984735	    -21.51237548	      4.39242793	     -2.16452774	      9.80627372	    -14.48112069	      6.73580546	     44.52991839	     90.00000001	      0.00000000	      0.00000000	    -14.42303978	    -11.31765963	     -0.90978977	     61.32047610	     90.00000001	      0.00000000	      0.00000000
      3.55000000	      4.72279038	     -2.68156470	     -3.26674508	     -0.05357296	      0.92373948	     -0.07996081	      3.18113750	     -3.63706746	    -18.15897377	     34.36551554	      1.03179778	      0.59979140	     22.65826019	      7.93836478	     -7.51948975	     22.69596576	     -6.63959227	    -16.59256526	     39.79308343	     -4.82231911	      0.69452033	      6.33602750	     -8.81340737	     -7.51948975	    -21.49399371	      4.12985818	     -2.03495101	      9.67426766	    -14.37597480	      6.69177131	     44.78667835	     90.00000001	      0.00000000	      0.00000000	    -14.42238830	    -11.21744512	     -1.07576614	     61.10268107	     90.00000001	      0.00000000	      0.00000000
      3.56000000	      4.61024368	     -2.62543971	     -3.54783597	     -0.05014657	      0.92418786	     -0.08107424	      2.97472286	     -3.77991867	    -18.14439808	     34.07829399	      0.94103801	      0.59477843	     22.62566601	      7.99506696	     -7.51943411	     22.45152803	     -6.60970677	    -16.78057079	     39.77553669	     -4.69623212	      0.69421408	      6.42693482	     -8.88830249	     -7.51943411	    -21.20439662	      3.86426208	     -1.95217354	      9.59255832	    -14.21331377	      6.72919233	     44.84819401	     90.00000001	      0.00000000	      0.00000000	    -14.53666243	    -11.17870278	     -1.09517392	     61.02289773	     90.00000001	      0.00000000	      0.00000000
      3.57000000	      4.57114871	     -2.55899994	     -3.81589597	     -0.04669692	      0.92485353	     -0.08219688	      2.61880739	     -3.93650727	    -18.08607318	     33.63813570	      0.90828981	      0.58709622	     22.52053813	      8.17997444	     -7.51935168	     22.04968364	     -6.59397902	    -17.17058961	     39.59900424	     -4.61182075	      0.69113300	      6.61969121	     -9.00921133	     -7.51935168	    -20.99432231	      3.57073066	     -1.91546566	      9.48426797	    -14.06711026	      6.75614726	     44.96224292	     90.00000001	      0.00000000	      0.00000000	    -14.60489062	    -11.14915635	     -1.15957319	     60.89452983	     90.00000001	      0.00000000	      0.00000000
      3.58000000	      4.78831201	     -2.53081105	     -4.07496515	     -0.04325349	      0.92593342	     -0.08351824	      1.87873384	     -4.14094672	    -18.10327025	     33.04472547	      1.00158145	      0.57673926	     22.28374691	      8.88039636	     -7.51906439	     21.33277651	     -6.56469408	    -17.89499306	     39.29720411	     -4.75262275	      0.68586560	      6.89991762	     -8.84038832	     -7.51906439	    -21.10413980	      3.33691641	     -1.78273637	      9.37182854	    -14.00282218	      6.75284311	     45.39680999	     90.00000001	      0.00000000	      0.00000000	    -14.52333431	    -10.99508102	     -1.41758523	     60.57230436	     90.00000001	      0.00000000	      0.00000000
      3.59000000	      4.59371493	     -2.49337117	     -4.34519125	     -0.04006276	      0.92638397	     -0.08476060	      1.76051503	     -4.31890676	    -18.24101430	     32.73831403	      0.97515393	      0.57139137	     22.26619926	      8.95471841	     -7.51902009	     21.13987423	     -6.60781267	    -18.16732985	     39.17798783	     -4.54367765	      0.68378488	      6.98425003	     -8.79769696	     -7.51902009	    -20.75408725	      3.13340547	     -1.68816231	      9.33105124	    -13.83207848	      6.80365934	     45.49909901	     90.00000001	      0.00000000	      0.00000000	    -14.61676188	    -10.96087641	     -1.45010794	     60.49774601	     90.00000001	      0.00000000	      0.00000000
